<svg width="1024" height="1024" viewBox="0 0 1024 1024" fill="none" xmlns="http://www.w3.org/2000/svg">
  <rect width="1024" height="1024" rx="232" fill="url(#bg)"/>
  <rect x="120" y="120" width="784" height="784" rx="184" fill="rgba(15,23,42,0.18)"/>
  <rect x="184" y="212" width="656" height="600" rx="120" fill="#0F172A" fill-opacity="0.94"/>
  <rect x="232" y="260" width="560" height="120" rx="56" fill="#111827"/>
  <circle cx="300" cy="320" r="18" fill="#F59E0B"/>
  <circle cx="352" cy="320" r="18" fill="#FBBF24"/>
  <circle cx="404" cy="320" r="18" fill="#FDE68A"/>
  <rect x="232" y="428" width="560" height="248" rx="88" fill="url(#panel)"/>
  <rect x="292" y="500" width="88" height="88" rx="28" fill="#0F172A"/>
  <path d="M332 530V558M318 544H346" stroke="#F8FAFC" stroke-width="16" stroke-linecap="round"/>
  <path d="M434 524H684" stroke="#F8FAFC" stroke-width="20" stroke-linecap="round" opacity="0.96"/>
  <path d="M434 582H628" stroke="#CBD5E1" stroke-width="18" stroke-linecap="round" opacity="0.82"/>
  <rect x="290" y="718" width="444" height="32" rx="16" fill="#1E293B"/>
  <rect x="290" y="718" width="232" height="32" rx="16" fill="#F59E0B"/>
  <defs>
    <linearGradient id="bg" x1="144" y1="96" x2="872" y2="944" gradientUnits="userSpaceOnUse">
      <stop stop-color="#F59E0B"/>
      <stop offset="0.5" stop-color="#FBBF24"/>
      <stop offset="1" stop-color="#0EA5E9"/>
    </linearGradient>
    <linearGradient id="panel" x1="232" y1="428" x2="792" y2="676" gradientUnits="userSpaceOnUse">
      <stop stop-color="#FBBF24"/>
      <stop offset="1" stop-color="#38BDF8"/>
    </linearGradient>
  </defs>
</svg>
